PathFileType	4	(X/Y/Z)	D:\TRACE\v60_Jaco2_6-2-23\ArmBodyNoDRS1-v60.trc
DataRate	CameraRate	NumFrames	NumMarkers	Units	OrigDataRate	OrigDataStartFrame	OrigNumFrames
100.00	100.00	      24	9	mm	100.00	1331	      5320
Frame#	Time	front left toe			Front right toe			aft left toe			aft right toe			Arm			FL body			FR body			AL Body			AR Body			
		X1	Y1	Z1	X2	Y2	Z2	X3	Y3	Z3	X4	Y4	Z4	X5	Y5	Z5	X6	Y6	Z6	X7	Y7	Z7	X8	Y8	Z8	X9	Y9	Z9	

1331	13.300	-136.96379	131.64595	-271.94193	247.67186	16.77753	-248.71019	-161.94041	12.27094	354.82300	209.15211	125.71578	363.51321	89.07873	1197.12488	-555.31628	-16.44860	573.30243	-402.64041	142.11526	578.14838	-393.81015	-59.33460	563.08655	541.81366	95.07333	555.60138	550.69257	
1332	13.310	-137.41940	125.74615	-272.46786	247.69341	16.77365	-248.69829	-161.84807	12.32827	354.81055	209.69270	119.61736	363.20197	88.74546	1197.05505	-556.44873	-16.19109	573.12292	-402.89911	142.32033	578.01874	-393.92343	-59.46181	563.23792	541.62543	94.97735	555.71619	550.46625	
1333	13.320	-137.85265	119.43372	-273.14111	247.66887	16.73252	-248.77106	-162.04015	12.28322	354.72763	211.60577	113.11903	362.70084	88.43046	1197.14136	-557.49176	-16.00612	572.92285	-403.03778	142.21565	578.19086	-394.22183	-59.62854	563.20483	541.47864	94.87881	555.76935	550.18658	
1334	13.330	-138.33459	112.45169	-273.67578	247.70009	16.71576	-248.68878	-162.27515	12.21424	354.70135	212.09438	105.56383	361.86551	88.35059	1197.53247	-558.30487	-15.93145	572.72351	-403.31296	142.69908	578.02423	-394.63171	-59.75538	563.23468	541.09247	94.83022	555.74414	549.97888	
1335	13.340	-138.26501	104.66216	-274.59799	247.77385	16.71348	-248.72044	-162.32304	12.23812	354.75903	213.70880	98.20354	361.28381	88.26231	1197.85278	-559.44183	-16.35407	572.83966	-403.97101	142.72197	577.96570	-394.85135	-60.17176	562.87952	540.56036	94.75410	555.63837	549.81525	
1336	13.350	-137.59673	96.56287	-275.34106	247.80928	16.75433	-248.62503	-162.16924	12.15573	354.70178	214.68379	90.38911	360.52972	88.43838	1198.16321	-560.23462	-16.40362	572.90173	-404.24622	142.94731	578.02734	-395.12802	-60.04513	562.86475	540.29358	94.84075	555.53522	549.42603	
1337	13.360	-136.86736	87.99109	-275.94882	247.80782	16.74442	-248.68323	-162.02077	12.07978	354.67578	215.09796	82.26410	359.39984	88.35917	1198.32227	-561.64136	-16.06716	572.98724	-404.34814	142.60683	578.04419	-395.36209	-59.48900	562.60480	540.16919	94.72314	555.47131	549.25055	
1338	13.370	-136.77342	79.74105	-276.39560	247.84866	16.73286	-248.74574	-162.00868	12.03945	354.58029	215.35066	74.06256	358.40375	88.32642	1198.43994	-562.84668	-15.93473	573.10382	-404.77084	142.62166	578.14905	-395.85361	-59.39590	562.57013	539.95959	94.64079	555.36371	548.60565	
1339	13.380	-137.00473	71.28008	-277.38345	247.74719	16.71809	-248.81427	-162.25906	12.14933	354.61420	215.42172	66.05225	357.19934	88.28138	1198.48657	-564.18445	-16.07178	573.24652	-405.55493	142.55428	578.26367	-396.22342	-59.74690	562.55450	539.10822	94.72705	555.26923	548.22144	
1340	13.390	-137.53004	63.54275	-277.99567	247.71094	16.71062	-248.83008	-162.25412	12.12448	354.60843	215.33253	57.90408	356.43048	88.24224	1198.51428	-565.46521	-16.15495	573.28448	-405.91324	142.35455	578.23590	-396.62561	-59.54913	562.77820	538.81311	94.82412	555.21600	547.92554	
1341	13.400	-138.72598	56.03484	-278.22830	247.69228	16.68887	-248.86638	-162.32457	12.17615	354.63440	214.95042	50.57854	355.73767	87.78901	1198.51208	-567.14630	-15.89190	573.17279	-405.99918	142.33318	578.10767	-397.16159	-59.68896	562.51538	538.35620	94.97411	555.15314	547.33875	
1342	13.410	-139.58508	49.34858	-278.84958	247.67970	16.70930	-248.85408	-161.91850	11.93198	354.51541	214.79890	43.42601	355.25165	87.87761	1198.58289	-568.35431	-16.31359	573.37885	-406.89093	142.58475	577.69183	-397.51154	-59.05069	562.39722	537.72589	94.92323	555.14856	546.71674	
1343	13.420	-140.10925	43.05958	-279.31061	248.25233	17.19825	-248.28754	-162.50737	11.99036	354.67792	213.93999	36.69388	354.81638	87.64330	1198.73938	-570.08765	-15.99343	573.11481	-407.20459	142.56180	578.00946	-398.36771	-59.20567	562.66699	537.01105	95.05703	555.20166	546.11377	
1344	13.430	-140.32677	36.43959	-279.82001	247.61230	16.73190	-248.91049	-162.64795	12.10692	354.71881	213.71916	30.12286	354.22696	87.91898	1198.76379	-571.35095	-15.88459	572.96240	-407.95798	142.40440	577.90271	-399.09918	-59.03069	562.70593	536.43622	95.43948	555.20831	545.58777	
1345	13.440	-140.50720	29.75460	-280.56946	247.59007	16.71780	-248.96370	-162.06773	12.00421	354.54282	213.37518	23.32405	353.46335	87.81439	1198.81165	-572.96130	-15.64051	572.78906	-408.53696	142.55330	577.80194	-399.67682	-58.78124	562.65845	535.73157	95.40920	555.11169	544.87274	
1346	13.450	-140.64275	23.00980	-281.56415	247.61183	16.76239	-248.92152	-162.50723	12.23507	354.68781	213.67570	20.38606	351.38950	88.46941	1198.55371	-574.05151	-16.31899	573.07977	-409.75751	142.26830	577.72491	-400.47211	-58.80141	562.59973	535.05817	95.48928	554.90387	544.00482	
1347	13.460	-141.81679	23.09163	-283.40796	247.55875	16.76253	-248.94118	-162.57976	12.05851	354.67767	214.40617	18.53243	350.79251	88.42708	1198.49817	-575.71362	-16.00116	572.91028	-410.07266	142.53751	577.54749	-401.28751	-58.70893	562.89886	534.12518	95.79048	555.26215	542.97217	
1348	13.470	-142.41142	21.56344	-283.49380	248.10175	17.27383	-248.40707	-162.55710	12.33761	354.61090	214.89281	18.59860	350.85049	88.70038	1198.49084	-576.98950	-15.39393	573.38635	-411.04404	142.74393	578.09528	-402.12076	-59.00720	564.27875	533.29041	95.57560	556.56866	542.42297	
1349	13.480	-141.94342	21.74622	-282.21820	247.73288	19.19644	-249.14801	-161.35461	14.05600	353.90610	215.56944	18.95955	351.84720	88.63725	1198.75134	-579.20685	-15.17698	573.92413	-411.69180	143.54128	578.79773	-403.07941	-58.43981	565.40936	532.55475	95.51562	558.09045	541.67676	
1350	13.490	-141.52089	21.18631	-283.45282	245.04810	22.68127	-247.54559	-159.65051	16.97552	355.44604	213.65891	18.20149	351.22641	88.87401	1199.02148	-581.47211	-14.79968	574.85602	-412.49890	144.14433	579.69391	-403.67294	-59.09895	565.94867	531.51208	95.65733	558.70502	540.89471	
1351	13.500	-141.36484	21.64458	-282.94928	241.36760	25.91818	-244.84044	-157.45888	20.29599	357.81891	213.73909	18.20828	351.10120	89.30412	1198.76001	-583.14105	-14.78069	575.74902	-413.16931	143.69412	580.41113	-404.15198	-59.13521	566.15430	531.26514	95.60659	559.05609	540.41016	
1352	13.510	-141.37949	21.22785	-283.37308	239.00436	34.19595	-243.28505	-154.07964	28.13294	358.08640	213.84608	18.20610	351.10507	89.85651	1198.54407	-584.21307	-14.46210	576.12939	-414.02365	144.40421	581.01117	-405.27200	-58.85624	566.44452	530.18658	95.70971	559.18573	539.38336	
1353	13.520	-141.54883	21.04601	-283.25351	238.68352	43.51916	-243.09859	-151.98711	37.34864	356.97208	213.68098	18.22369	351.02100	90.24706	1198.46582	-584.97736	-14.21929	576.15479	-414.64941	144.47293	580.99847	-405.91318	-58.41207	566.82983	529.52014	96.05446	559.47552	538.75208	
1354	13.530	-141.59590	21.02073	-283.45816	239.03188	54.00000	-244.78424	-150.58237	47.83691	354.42282	213.84454	18.15925	351.16965	90.48671	1198.78967	-585.51379	-14.64369	576.00867	-415.60480	144.23795	580.47443	-406.40512	-57.80564	566.99255	529.13666	96.40393	559.61975	538.21704	
